<svg id="Layer_1" data-name="Layer 1" xmlns="http://www.w3.org/2000/svg" viewBox="0 0 540 98.7"><defs><style>.cls-1{fill:#fff;}</style></defs><path class="cls-1" d="M482.4,85V54.2h48V41.9h-48V13.8h56.2V1.4H468.7v96H540V85Zm-142-4.2L295.8,1.4H276.6v96h13.7V18l44.6,79.4h19.2V1.4H340.4ZM199.2,54.2h48V41.9h-48V13.8h56.2V1.4H185.5v96h71.3V85H199.2V54.2ZM411.8,12.4h1.4c11.7,0,20.4,6.9,21.1,17.8H448C447.3,11.7,433.7,0,412.5,0c-20.7,0-34.3,12.3-34.3,27.4s8.9,23.9,24.3,27l15.4,3.2C428,59.7,433,64.2,433,72s-7,14.4-19.9,14.4h-1.4c-14.4,0-24.5-6.9-24.5-19.9H373.5c.7,21.2,15.1,32.2,37.7,32.2,21.2,0,35.5-10.4,35.5-27.3,0-15.6-9.6-24.4-26.2-27.7l-15.4-3c-8.1-1.6-13.2-6-13.2-13.4,0-8.5,8-14.9,19.9-14.9m-283.3,0h1.4c11.7,0,20.4,6.9,21.1,17.8h13.7C164,11.7,150.4,0,129.1,0,108.4,0,94.8,12.3,94.8,27.4s8.9,23.9,24.3,27l15.4,3.2c10.1,2.1,15.1,6.6,15.1,14.4s-7,14.4-19.9,14.4h-1.4c-14.4,0-24.5-6.9-24.5-19.9H90.1c.7,21.2,15.1,32.2,37.7,32.2,21.2,0,35.5-10.4,35.5-27.3,0-15.6-9.6-24.4-26.2-27.7l-15.4-3c-8.1-1.6-13.2-6-13.2-13.4.1-8.5,8-14.9,20-14.9m-90.1,0h1.4c11.7,0,20.4,6.9,21.1,17.8H74.6C73.9,11.7,60.3,0,39.1,0,18.4,0,4.8,12.4,4.8,27.5s8.9,23.9,24.3,27l15.4,3.2c10.1,2.1,15.1,6.6,15.1,14.4s-7.1,14.3-20,14.3H38.2c-14.4,0-24.5-6.9-24.5-19.9H0C.7,87.7,15.1,98.7,37.7,98.7c21.2,0,35.5-10.4,35.5-27.3C73.2,55.8,63.6,47,47,43.7l-15.4-3c-8.1-1.6-13.2-6-13.2-13.4.1-8.5,8.1-14.9,20-14.9"/></svg>