<?xml version="1.0" encoding="utf-8"?>
<!-- Generator: Adobe Illustrator 26.2.1, SVG Export Plug-In . SVG Version: 6.00 Build 0)  -->
<svg version="1.1" id="Layer_1" xmlns="http://www.w3.org/2000/svg" xmlns:xlink="http://www.w3.org/1999/xlink" x="0px" y="0px"
	 viewBox="0 0 175.49 175.67" style="enable-background:new 0 0 175.49 175.67;" xml:space="preserve">
<style type="text/css">
	.st0{fill:#FFFFFF;}
</style>
<g>
	<path class="st0" d="M157.86,94.86c-3.49,35.56-33.47,63.35-69.95,63.35c-38.82,0-70.3-31.47-70.3-70.3s31.47-70.3,70.3-70.3
		c7.24,0,14.21,1.1,20.78,3.13l6.44-16.41C106.54,1.52,97.37,0,87.84,0C39.33,0,0,39.33,0,87.84c0,48.51,39.33,87.84,87.84,87.84
		c46.61,0,84.74-36.31,87.65-82.19L157.86,94.86z"/>
	<polygon class="st0" points="167.72,33.57 155.04,20.9 69.83,106.11 38.96,76.3 26.51,89.19 69.48,130.68 69.51,130.65 
		70.08,131.21 	"/>
</g>
</svg>
